<?xml version="1.0" encoding="utf-8"?>
<!-- Generator: Adobe Illustrator 17.0.1, SVG Export Plug-In . SVG Version: 6.00 Build 0)  -->
<!DOCTYPE svg PUBLIC "-//W3C//DTD SVG 1.1//EN" "http://www.w3.org/Graphics/SVG/1.1/DTD/svg11.dtd">
<svg version="1.1" id="Слой_1" xmlns="http://www.w3.org/2000/svg" xmlns:xlink="http://www.w3.org/1999/xlink" x="0px" y="0px"
	 width="3263.572px" height="665px" viewBox="0 0 3263.572 665" enable-background="new 0 0 3263.572 665" xml:space="preserve">
<metadata><?xpacket begin="﻿" id="W5M0MpCehiHzreSzNTczkc9d"?>
<x:xmpmeta xmlns:x="adobe:ns:meta/" x:xmptk="Adobe XMP Core 5.5-c014 79.151739, 2013/04/03-12:12:15        ">
   <rdf:RDF xmlns:rdf="http://www.w3.org/1999/02/22-rdf-syntax-ns#">
      <rdf:Description rdf:about=""
            xmlns:dc="http://purl.org/dc/elements/1.1/"
            xmlns:xmp="http://ns.adobe.com/xap/1.0/"
            xmlns:xmpGImg="http://ns.adobe.com/xap/1.0/g/img/"
            xmlns:xmpMM="http://ns.adobe.com/xap/1.0/mm/"
            xmlns:stRef="http://ns.adobe.com/xap/1.0/sType/ResourceRef#"
            xmlns:stEvt="http://ns.adobe.com/xap/1.0/sType/ResourceEvent#"
            xmlns:stMfs="http://ns.adobe.com/xap/1.0/sType/ManifestItem#"
            xmlns:illustrator="http://ns.adobe.com/illustrator/1.0/"
            xmlns:xmpTPg="http://ns.adobe.com/xap/1.0/t/pg/"
            xmlns:stDim="http://ns.adobe.com/xap/1.0/sType/Dimensions#"
            xmlns:xmpG="http://ns.adobe.com/xap/1.0/g/"
            xmlns:pdf="http://ns.adobe.com/pdf/1.3/">
         <dc:format>image/svg+xml</dc:format>
         <dc:title>
            <rdf:Alt>
               <rdf:li xml:lang="x-default">logo</rdf:li>
            </rdf:Alt>
         </dc:title>
         <xmp:CreatorTool>Adobe Illustrator CC (Windows)</xmp:CreatorTool>
         <xmp:CreateDate>2016-12-04T14:41:48+02:00</xmp:CreateDate>
         <xmp:ModifyDate>2016-12-04T14:41:49+02:00</xmp:ModifyDate>
         <xmp:MetadataDate>2016-12-04T14:41:49+02:00</xmp:MetadataDate>
         <xmp:Thumbnails>
            <rdf:Alt>
               <rdf:li rdf:parseType="Resource">
                  <xmpGImg:width>256</xmpGImg:width>
                  <xmpGImg:height>72</xmpGImg:height>
                  <xmpGImg:format>JPEG</xmpGImg:format>
                  <xmpGImg:image>/9j/4AAQSkZJRgABAgEAEgASAAD/7QAsUGhvdG9zaG9wIDMuMAA4QklNA+0AAAAAABAAEgAAAAEA&#xA;AQASAAAAAQAB/+4ADkFkb2JlAGTAAAAAAf/bAIQABgQEBAUEBgUFBgkGBQYJCwgGBggLDAoKCwoK&#xA;DBAMDAwMDAwQDA4PEA8ODBMTFBQTExwbGxscHx8fHx8fHx8fHwEHBwcNDA0YEBAYGhURFRofHx8f&#xA;Hx8fHx8fHx8fHx8fHx8fHx8fHx8fHx8fHx8fHx8fHx8fHx8fHx8fHx8fHx8f/8AAEQgASAEAAwER&#xA;AAIRAQMRAf/EAaIAAAAHAQEBAQEAAAAAAAAAAAQFAwIGAQAHCAkKCwEAAgIDAQEBAQEAAAAAAAAA&#xA;AQACAwQFBgcICQoLEAACAQMDAgQCBgcDBAIGAnMBAgMRBAAFIRIxQVEGE2EicYEUMpGhBxWxQiPB&#xA;UtHhMxZi8CRygvElQzRTkqKyY3PCNUQnk6OzNhdUZHTD0uIIJoMJChgZhJRFRqS0VtNVKBry4/PE&#xA;1OT0ZXWFlaW1xdXl9WZ2hpamtsbW5vY3R1dnd4eXp7fH1+f3OEhYaHiImKi4yNjo+Ck5SVlpeYmZ&#xA;qbnJ2en5KjpKWmp6ipqqusra6voRAAICAQIDBQUEBQYECAMDbQEAAhEDBCESMUEFURNhIgZxgZEy&#xA;obHwFMHR4SNCFVJicvEzJDRDghaSUyWiY7LCB3PSNeJEgxdUkwgJChgZJjZFGidkdFU38qOzwygp&#xA;0+PzhJSktMTU5PRldYWVpbXF1eX1RlZmdoaWprbG1ub2R1dnd4eXp7fH1+f3OEhYaHiImKi4yNjo&#xA;+DlJWWl5iZmpucnZ6fkqOkpaanqKmqq6ytrq+v/aAAwDAQACEQMRAD8A9U4q7FXYq7FXYq7FXYq7&#xA;FXYq7FXYq7FXYq7FXYq7FXYq7FXYq7FXYq7FXYq7FXYq7FXYq7FXYq7FXYq7FXYq7FXYq7FXYqp3&#xA;Cu9vKqfbZGC9tyNsqzxMoSA5kFlAgSBLBf8ADXmr/K/5HD/mrPNv5A7T8/8AT/tek/P6b8RS7UYd&#xA;X0+dYbqV0kZQ4AkLfCSR2Ptmq12LVaWYhllISIv6r2+fk5WCWLKLiBXuen57G8e7FXYq7FXYq7FX&#xA;Yq7FXYq7FXYq7FXYq7FXYq7FXYq7FXYq7FXYq7FXYq7FXYq7FXYq7FXYq7FXYqwTz5/x14f+Ydf+&#xA;Jvnmvtl/jUf+Fj/dSek7H/uj/W/QGd56U827FXYq7FXYq7FXYq7FXYq7FXYq7FXYq7FXYq7FXYq7&#xA;FXYq7FXYq7FXYq7FXYq7FXYqw/W7PzVJqlw9m1wLYkemEl4rTiOg5DvnBdraXtOWpmcJyeH0qdDk&#xA;OnE77SZdMMYE+Hi937EknuvMcF0LSW6uVuCVAj9Zq1bp0anfOezajtDHl8KWTIMm23GevLq7CGPT&#xA;yjxCMeH3I+Ow86CRSzXXGor+/PSv+vmzhou1+IWctf1/+PONLNpK/h/0v7GeZ6W80hrnTNPupBJc&#xA;28czgcQzqCaVrTf55h6js/BmlxZIRkeW4bseoyQFRJAROZjS7FXYq7FXYq7FXYq7FXYq7FXYq7FX&#xA;Yq7FXYq7FXYq7FXYq7FXYq7FXYq7FXYq7FXYq7FWCa//AMphH/xkg/41zzXtn/jVH9bH+h6TR/4o&#xA;fdL9LO89KebdirsVdirsVdirsVdirsVdirsVdirsVdirsVdirsVdirsVdirsVdirsVdirsVdirsV&#xA;diqGGqacbj6sLmP6xy4+lyHLkO1Mwx2hpzk8Pjjx3VXvbd+XycPFwnh70TmY0uxVgmv/APKYR/8A&#xA;GSD/AI1zzXtn/jVH9bH+h6TR/wCKH3S/SzvPSnm3Yq7FXYq7FXYq7FXYq7FXYq7FXYq7FXYq7FXY&#xA;q7FXYq7FXYq7FXYq7FXYq7FXYq7FXYqwGL/lNj/zFN+s55jj/wCNj/kqXppf4n/ms+z055l2KpHf&#xA;eV47vV11E3BRlZG9PjUfu6d696Zzms9no59UNRx1Riar+bXm7HD2gYYvDrv+1PM6N1zsVdirsVdi&#xA;rsVdirsVdirsVdirsVdirsVdirsVdirsVdirsVdirsVdirsVdirsVdirsVed6lBqsOvXN1bQS81m&#xA;Zo5BGWHXqKgg55Vr8Opx66eTHGdiZIPCT+inqsE8UsEYyI+nvVv035y/4u/6R1/5oy/+V+1/6f8A&#xA;yrH/ABLX+U0nl/pv2sv0Ge9n0mCW9r9Zbn6nJQh2cgfCAO1M7vsbNmyaWEs1+IbuxX8Rrbbo6PWQ&#xA;hHKRD6f2I/Nm4rsVdirsVdirsVdirsVdirsVdirsVdirsVdirsVdirsVdirsVdirsVdirsVdirsV&#xA;dirsVdirsVdirsVdirsVdirsVdirsVdirsVdirsVdirsVdirsVdirsVdirsVdirsVdirsVdirsVd&#xA;irsVdirsVf/Z</xmpGImg:image>
               </rdf:li>
            </rdf:Alt>
         </xmp:Thumbnails>
         <xmpMM:RenditionClass>proof:pdf</xmpMM:RenditionClass>
         <xmpMM:OriginalDocumentID>uuid:65E6390686CF11DBA6E2D887CEACB407</xmpMM:OriginalDocumentID>
         <xmpMM:DocumentID>xmp.did:6eca9393-991e-804b-8814-4ba6ade17e82</xmpMM:DocumentID>
         <xmpMM:InstanceID>xmp.iid:6eca9393-991e-804b-8814-4ba6ade17e82</xmpMM:InstanceID>
         <xmpMM:DerivedFrom rdf:parseType="Resource">
            <stRef:instanceID>xmp.iid:7bba33ed-018c-e249-9a92-e1eceb528418</stRef:instanceID>
            <stRef:documentID>xmp.did:7bba33ed-018c-e249-9a92-e1eceb528418</stRef:documentID>
            <stRef:originalDocumentID>uuid:65E6390686CF11DBA6E2D887CEACB407</stRef:originalDocumentID>
            <stRef:renditionClass>proof:pdf</stRef:renditionClass>
         </xmpMM:DerivedFrom>
         <xmpMM:History>
            <rdf:Seq>
               <rdf:li rdf:parseType="Resource">
                  <stEvt:action>saved</stEvt:action>
                  <stEvt:instanceID>xmp.iid:35bf4665-7a58-244f-b84e-cb5ae6220e0a</stEvt:instanceID>
                  <stEvt:when>2016-09-21T14:27:35+03:00</stEvt:when>
                  <stEvt:softwareAgent>Adobe Illustrator CC (Windows)</stEvt:softwareAgent>
                  <stEvt:changed>/</stEvt:changed>
               </rdf:li>
               <rdf:li rdf:parseType="Resource">
                  <stEvt:action>saved</stEvt:action>
                  <stEvt:instanceID>xmp.iid:6eca9393-991e-804b-8814-4ba6ade17e82</stEvt:instanceID>
                  <stEvt:when>2016-12-04T14:41:49+02:00</stEvt:when>
                  <stEvt:softwareAgent>Adobe Illustrator CC (Windows)</stEvt:softwareAgent>
                  <stEvt:changed>/</stEvt:changed>
               </rdf:li>
            </rdf:Seq>
         </xmpMM:History>
         <xmpMM:Manifest>
            <rdf:Seq>
               <rdf:li rdf:parseType="Resource">
                  <stMfs:linkForm>EmbedByReference</stMfs:linkForm>
                  <stMfs:reference rdf:parseType="Resource">
                     <stRef:filePath>C:\Users\romeg\Google Диск\WORK\Triomics\D0973478.jpg</stRef:filePath>
                  </stMfs:reference>
               </rdf:li>
            </rdf:Seq>
         </xmpMM:Manifest>
         <illustrator:StartupProfile>Web</illustrator:StartupProfile>
         <xmpTPg:NPages>1</xmpTPg:NPages>
         <xmpTPg:HasVisibleTransparency>False</xmpTPg:HasVisibleTransparency>
         <xmpTPg:HasVisibleOverprint>False</xmpTPg:HasVisibleOverprint>
         <xmpTPg:MaxPageSize rdf:parseType="Resource">
            <stDim:w>3263.572006</stDim:w>
            <stDim:h>665.000000</stDim:h>
            <stDim:unit>Pixels</stDim:unit>
         </xmpTPg:MaxPageSize>
         <xmpTPg:PlateNames>
            <rdf:Seq>
               <rdf:li>Cyan</rdf:li>
               <rdf:li>Magenta</rdf:li>
               <rdf:li>Yellow</rdf:li>
               <rdf:li>Black</rdf:li>
            </rdf:Seq>
         </xmpTPg:PlateNames>
         <xmpTPg:SwatchGroups>
            <rdf:Seq>
               <rdf:li rdf:parseType="Resource">
                  <xmpG:groupName>Группа образцов по умолчанию</xmpG:groupName>
                  <xmpG:groupType>0</xmpG:groupType>
               </rdf:li>
            </rdf:Seq>
         </xmpTPg:SwatchGroups>
         <pdf:Producer>Adobe PDF library 10.01</pdf:Producer>
      </rdf:Description>
   </rdf:RDF>
</x:xmpmeta>
                                                                                                    
                                                                                                    
                                                                                                    
                                                                                                    
                                                                                                    
                                                                                                    
                                                                                                    
                                                                                                    
                                                                                                    
                                                                                                    
                                                                                                    
                                                                                                    
                                                                                                    
                                                                                                    
                                                                                                    
                                                                                                    
                                                                                                    
                                                                                                    
                                                                                                    
                                                                                                    
                           
<?xpacket end="w"?>
	</metadata>
<image display="none" overflow="visible" enable-background="new    " width="213" height="211" xlink:href="D0973478.jpg"  transform="matrix(3.9948 0 0 3.9948 -115.4421 -106.8363)">
</image>
<g>
	<g>
		<polygon fill="#FFB621" points="200,200 200,260 303,260 303,525 363,525 363,260 465,260 465,200 		"/>
	</g>
</g>
<g>
	<g>
		<polyline fill="#FFB621" points="605,60 605,180 605,200 665,200 665,180 665,60 665,0 605,0 485,0 465,0 465,60 		"/>
	</g>
</g>
<g>
	<g>
		<polyline fill="#FFB621" points="60,604 60,484.499 60,465 0,465 0,484.499 0,604.5 0,665 60.498,665 180.498,665 200,665 
			200,604 		"/>
	</g>
</g>
<g>
	<path fill="#FFFFFF" d="M1096.993,257.023v229.02h-63.347v-229.02h-80.401v-54.819h224.148v54.819H1096.993z"/>
	<path fill="#FFFFFF" d="M1453.919,296.412c0,45.479-18.006,74.856-54.007,88.115l71.874,101.516h-77.964l-62.94-90.552h-43.855
		v90.552h-63.346V202.204h107.607c44.121,0,75.592,7.449,94.411,22.334C1444.509,239.429,1453.919,263.387,1453.919,296.412z
		 M1377.578,330.115c7.849-7.036,11.776-18.203,11.776-33.5c0-15.291-4.061-25.786-12.182-31.47
		c-8.121-5.685-22.334-8.527-42.637-8.527h-47.51v84.055h46.291C1354.972,340.672,1369.724,337.157,1377.578,330.115z"/>
	<path fill="#FFFFFF" d="M1518.885,202.204h63.346v283.839h-63.346V202.204z"/>
	<path fill="#FFFFFF" d="M1890.835,446.859c-28.696,28.019-64.025,42.027-105.982,42.027c-41.965,0-77.292-14.008-105.983-42.027
		c-28.698-28.019-43.043-62.87-43.043-104.562c0-41.685,14.345-76.544,43.043-104.562c28.691-28.018,64.018-42.027,105.983-42.027
		c41.957,0,77.286,14.009,105.982,42.027c28.692,28.019,43.043,62.877,43.043,104.562
		C1933.878,383.989,1919.527,418.841,1890.835,446.859z M1869.314,342.5c0-25.309-8.121-46.9-24.364-64.767
		c-16.242-17.867-36.209-26.8-59.894-26.8c-23.691,0-43.652,8.933-59.895,26.8c-16.242,17.867-24.364,39.458-24.364,64.767
		c0,25.315,8.122,46.838,24.364,64.564c16.242,17.734,36.203,26.598,59.895,26.598c23.685,0,43.651-8.864,59.894-26.598
		C1861.193,389.338,1869.314,367.815,1869.314,342.5z"/>
	<path fill="#FFFFFF" d="M2241.671,307.375l-76.746,155.118h-37.765l-76.339-155.118v178.668h-63.347V202.204h85.68l73.091,155.929
		l73.498-155.929h85.274v283.839h-63.346V307.375z"/>
	<path fill="#FFFFFF" d="M2374.858,202.204h63.347v283.839h-63.347V202.204z"/>
	<path fill="#FFFFFF" d="M2638.39,430.006c31.126,0,56.576-12.315,76.34-36.951l40.606,41.825
		c-32.219,36.278-70.187,54.413-113.902,54.413c-43.722,0-79.729-13.807-108.013-41.419
		c-28.291-27.612-42.433-62.464-42.433-104.561c0-42.091,14.416-77.216,43.246-105.374c28.83-28.152,64.088-42.23,105.779-42.23
		c46.558,0,85.54,17.733,116.947,53.194l-39.388,44.667c-20.037-24.903-44.94-37.358-74.716-37.358
		c-23.824,0-44.198,7.785-61.113,23.349c-16.921,15.57-25.379,36.546-25.379,62.94c0,26.395,7.982,47.579,23.959,63.55
		C2596.293,422.026,2615.651,430.006,2638.39,430.006z"/>
	<path fill="#FFFFFF" d="M2871.672,258.85c-6.091,5.013-9.137,11.642-9.137,19.897c0,8.261,3.719,14.821,11.168,19.694
		c7.441,4.873,24.629,10.628,51.57,17.257c26.933,6.637,47.846,16.586,62.736,29.846c14.885,13.267,22.334,32.625,22.334,58.068
		c0,25.448-9.543,46.089-28.628,61.923c-19.085,15.837-44.197,23.756-75.324,23.756c-44.94,0-85.414-16.648-121.414-49.945
		l37.765-46.292c30.587,26.799,58.879,40.2,84.867,40.2c11.636,0,20.773-2.5,27.409-7.512c6.631-5.006,9.948-11.775,9.948-20.303
		s-3.521-15.291-10.557-20.303c-7.042-5.006-20.982-10.082-41.825-15.227c-33.031-7.849-57.192-18.07-72.483-30.658
		c-15.298-12.588-22.943-32.345-22.943-59.285c0-26.934,9.676-47.713,29.033-62.331c19.352-14.618,43.512-21.927,72.483-21.927
		c18.945,0,37.897,3.248,56.849,9.745c18.945,6.497,35.461,15.703,49.54,27.613l-32.08,46.291
		c-24.637-18.679-50.085-28.019-76.341-28.019C2886.088,251.338,2877.763,253.845,2871.672,258.85z"/>
</g>
</svg>
