<?xml version="1.0" encoding="utf-8"?>
<!-- Generator: Adobe Illustrator 17.0.1, SVG Export Plug-In . SVG Version: 6.00 Build 0)  -->
<!DOCTYPE svg PUBLIC "-//W3C//DTD SVG 1.1//EN" "http://www.w3.org/Graphics/SVG/1.1/DTD/svg11.dtd">
<svg version="1.1" id="Слой_1" xmlns="http://www.w3.org/2000/svg" xmlns:xlink="http://www.w3.org/1999/xlink" x="0px" y="0px"
	 width="3263.572px" height="665px" viewBox="0 0 3263.572 665" enable-background="new 0 0 3263.572 665" xml:space="preserve">
<metadata><?xpacket begin="﻿" id="W5M0MpCehiHzreSzNTczkc9d"?>
<x:xmpmeta xmlns:x="adobe:ns:meta/" x:xmptk="Adobe XMP Core 5.5-c014 79.151739, 2013/04/03-12:12:15        ">
   <rdf:RDF xmlns:rdf="http://www.w3.org/1999/02/22-rdf-syntax-ns#">
      <rdf:Description rdf:about=""
            xmlns:dc="http://purl.org/dc/elements/1.1/"
            xmlns:xmp="http://ns.adobe.com/xap/1.0/"
            xmlns:xmpGImg="http://ns.adobe.com/xap/1.0/g/img/"
            xmlns:xmpMM="http://ns.adobe.com/xap/1.0/mm/"
            xmlns:stRef="http://ns.adobe.com/xap/1.0/sType/ResourceRef#"
            xmlns:stEvt="http://ns.adobe.com/xap/1.0/sType/ResourceEvent#"
            xmlns:stMfs="http://ns.adobe.com/xap/1.0/sType/ManifestItem#"
            xmlns:illustrator="http://ns.adobe.com/illustrator/1.0/"
            xmlns:xmpTPg="http://ns.adobe.com/xap/1.0/t/pg/"
            xmlns:stDim="http://ns.adobe.com/xap/1.0/sType/Dimensions#"
            xmlns:xmpG="http://ns.adobe.com/xap/1.0/g/"
            xmlns:pdf="http://ns.adobe.com/pdf/1.3/">
         <dc:format>image/svg+xml</dc:format>
         <dc:title>
            <rdf:Alt>
               <rdf:li xml:lang="x-default">logo</rdf:li>
            </rdf:Alt>
         </dc:title>
         <xmp:CreatorTool>Adobe Illustrator CC (Windows)</xmp:CreatorTool>
         <xmp:CreateDate>2016-12-04T14:37:32+02:00</xmp:CreateDate>
         <xmp:ModifyDate>2016-12-04T14:37:32+02:00</xmp:ModifyDate>
         <xmp:MetadataDate>2016-12-04T14:37:32+02:00</xmp:MetadataDate>
         <xmp:Thumbnails>
            <rdf:Alt>
               <rdf:li rdf:parseType="Resource">
                  <xmpGImg:width>256</xmpGImg:width>
                  <xmpGImg:height>84</xmpGImg:height>
                  <xmpGImg:format>JPEG</xmpGImg:format>
                  <xmpGImg:image>/9j/4AAQSkZJRgABAgEAEgASAAD/7QAsUGhvdG9zaG9wIDMuMAA4QklNA+0AAAAAABAAEgAAAAEA&#xA;AQASAAAAAQAB/+4ADkFkb2JlAGTAAAAAAf/bAIQABgQEBAUEBgUFBgkGBQYJCwgGBggLDAoKCwoK&#xA;DBAMDAwMDAwQDA4PEA8ODBMTFBQTExwbGxscHx8fHx8fHx8fHwEHBwcNDA0YEBAYGhURFRofHx8f&#xA;Hx8fHx8fHx8fHx8fHx8fHx8fHx8fHx8fHx8fHx8fHx8fHx8fHx8fHx8fHx8f/8AAEQgAVAEAAwER&#xA;AAIRAQMRAf/EAaIAAAAHAQEBAQEAAAAAAAAAAAQFAwIGAQAHCAkKCwEAAgIDAQEBAQEAAAAAAAAA&#xA;AQACAwQFBgcICQoLEAACAQMDAgQCBgcDBAIGAnMBAgMRBAAFIRIxQVEGE2EicYEUMpGhBxWxQiPB&#xA;UtHhMxZi8CRygvElQzRTkqKyY3PCNUQnk6OzNhdUZHTD0uIIJoMJChgZhJRFRqS0VtNVKBry4/PE&#xA;1OT0ZXWFlaW1xdXl9WZ2hpamtsbW5vY3R1dnd4eXp7fH1+f3OEhYaHiImKi4yNjo+Ck5SVlpeYmZ&#xA;qbnJ2en5KjpKWmp6ipqqusra6voRAAICAQIDBQUEBQYECAMDbQEAAhEDBCESMUEFURNhIgZxgZEy&#xA;obHwFMHR4SNCFVJicvEzJDRDghaSUyWiY7LCB3PSNeJEgxdUkwgJChgZJjZFGidkdFU38qOzwygp&#xA;0+PzhJSktMTU5PRldYWVpbXF1eX1RlZmdoaWprbG1ub2R1dnd4eXp7fH1+f3OEhYaHiImKi4yNjo&#xA;+DlJWWl5iZmpucnZ6fkqOkpaanqKmqq6ytrq+v/aAAwDAQACEQMRAD8A9U4q7FXYq7FXYq7FXYq7&#xA;FXYq7FXYq7FXYq7FXYq7FXYq7FXYq7FXYq7FXYq7FXYq7FXYq7FXYq7FXYq7FXYq7FXYq7FXYq7F&#xA;XYqw7X/NGq2Orz2sDIIo+HEFQT8SKx3+Zzgu2vaHU6fVTxwI4Y1074gu+0XZ+LJiEpXZv70v/wAa&#xA;65/NH/wAzV/6LNb3x/0rlfyVh8/mjtD806tearb20zIYpCQwCgHZSev0ZseyPaLVZ9TDHMx4ZHu8&#xA;i42r7OxY8RkLsMzz0B0DsVdirsVdirsVdirsVdirsVdirsVdirsVdirsVdirsVdirsVdirsVdirs&#xA;VdirsVdirsVdiqjJY2Url5LeN3PVmRSTTbqRmPk0eGZ4pQiT3kBsjmmBQJA96z9Gab/yyQ/8i1/p&#xA;kPyGn/1OH+lH6k/mMn84/MvPvK//AB37P/Wb/iBzy32d/wAex+8/cXqO0P7iX46vSs9deSdirsVd&#xA;irsVdirsVdirsVdirsVdirsVdirsVdirsVdirsVdirsVdirsVdirsVaZlVSzGiqKk+wwSkALPIJA&#xA;vZLv8R6H/wAtkf3n+mar+XdF/qkXK/I5v5pd/iPQ/wDlsj+8/wBMf5d0X+qRX8jm/ml3+I9D/wCW&#xA;yP7z/TH+XdF/qkV/I5v5pRttdW91CJrdxJE1QHXptsc2Gn1GPNDjxniierj5McoGpCiq5cwYD5d0&#xA;jVINatZZrWWONWPJ2UgD4SM8x7D7M1OPWY5TxyjEE7keRem12qxywyAkCWfZ6c8y7FXYq7FXYq7F&#xA;XYq7FXYq7FXYq7FXYq7FXYq7FXYq7FXYq7FXYq7FXYq7FXYqsnjMkEkYNC6soJ9xTK80OOEojqCG&#xA;UJVIFhX+AtS/5aIf+G/pnnv+gzUfz4fb+p6H+WcfcfsSHULKSxvJbWRgzxEAstaGoB7/ADzmddpJ&#xA;afNLFI2Y9zssGUZICQ6p9/gLUv8Aloh/4b+mdN/oM1H8+H2/qdb/ACzj7j9jKNC06XTtNjtZWV3Q&#xA;sSy1p8TE987LsfQy0unGKRBIvl5l02szjLkMgmGbRxXYq7FXYq7FXYq7FXYq7FXYq7FXYq7FXYq7&#xA;FXYq7FXYq7FXYq7FXYq7FXYq7FXYq7FXYq7FXmvmj/jv3n+sv/EBnkXtF/j2T3j7g9b2f/cR/HV6&#xA;VnrryTsVdirsVdirsVdirsVdirsVdirsVdirsVdirsVdirsVdirsVdirsVdirsVdirsVdirsVdir&#xA;sVdirzXzR/x37z/WX/iAzyL2i/x7J7x9wet7P/uI/jq9Kz115J2KuxV2KuxV2KuxV2KuxV2KuxV2&#xA;KuxV2KuxV2KuxV2KuxV2KuxV2KuxV2KuxV2KuxViPna+vba6tlt7iSFWQlhG7KCa96EZwvtbrM2L&#xA;LAY5yhcTyJHXyd72ThhOMuIA79QnnlyWWbRLWSV2kkZTydyWY/EepOdH2FllPR45SJlIg7nc8y63&#xA;XREc0gBQTLNu4jsVeeeZbG+k1y6eO3ldCwoyoxB+EdwM8r7e0eaesyGMJEWOUT3B6nQZoDDEEj5v&#xA;Q89UeWdirsVdirsVdirsVdirsVdirsVdirsVdirsVdirsVdirsVdirsVdirsVdirsVdirsVYV5+/&#xA;3stf+Mbf8Szzz20/vcf9U/e9D2N9Evem/lzU9Nh0S1jlu4Y5FU8keRFYfEeoJze9hdoaeGjxxlkh&#xA;GQB2MgDzPm4Gu0+SWaREZEe4pmNY0gmgvrck9B6qf1zcDtTSn/K4/wDTx/W4n5XL/Nl8ii8zmh2K&#xA;uxV2KuxV2KuxV2KuxV2KuxV2KuxV2KuxV2KuxV2KuxV2KuxV2KuxV2KuxV2KuxV2KuxVjnmny/fa&#xA;pcQSWxQLGhVuZI3Jr2Bzk/aLsXNrJxlj4aiK3P7Ha9na2GGJEr3ST/A+tfzQ/wDBn/mnOd/0Iazv&#xA;h8z+p2P8r4fNdH5J1lZFYtDQEE/Eex/1cnD2S1YkDcPmf1Il2tiI6s8z0t5p2KuxV2KuxV2KuxV2&#xA;KuxV2KuxV2KuxV2KuxV2KuxV2KuxV2KuxV2KuxV2KuxV2KuxV2KuxV2KuxV2KuxV2KuxV2KuxV2K&#xA;uxV2KuxV2KuxV2KuxV2KuxV2KuxV2KuxV2KuxV2KuxV2KuxV2KuxV2Kv/9k=</xmpGImg:image>
               </rdf:li>
            </rdf:Alt>
         </xmp:Thumbnails>
         <xmpMM:RenditionClass>proof:pdf</xmpMM:RenditionClass>
         <xmpMM:OriginalDocumentID>uuid:65E6390686CF11DBA6E2D887CEACB407</xmpMM:OriginalDocumentID>
         <xmpMM:DocumentID>xmp.did:9a3c44d6-5015-0445-a372-5997c8a39b84</xmpMM:DocumentID>
         <xmpMM:InstanceID>xmp.iid:9a3c44d6-5015-0445-a372-5997c8a39b84</xmpMM:InstanceID>
         <xmpMM:DerivedFrom rdf:parseType="Resource">
            <stRef:instanceID>xmp.iid:5eaf387b-46af-624a-8200-3a8bf609f115</stRef:instanceID>
            <stRef:documentID>xmp.did:5eaf387b-46af-624a-8200-3a8bf609f115</stRef:documentID>
            <stRef:originalDocumentID>uuid:65E6390686CF11DBA6E2D887CEACB407</stRef:originalDocumentID>
            <stRef:renditionClass>proof:pdf</stRef:renditionClass>
         </xmpMM:DerivedFrom>
         <xmpMM:History>
            <rdf:Seq>
               <rdf:li rdf:parseType="Resource">
                  <stEvt:action>saved</stEvt:action>
                  <stEvt:instanceID>xmp.iid:35bf4665-7a58-244f-b84e-cb5ae6220e0a</stEvt:instanceID>
                  <stEvt:when>2016-09-21T14:27:35+03:00</stEvt:when>
                  <stEvt:softwareAgent>Adobe Illustrator CC (Windows)</stEvt:softwareAgent>
                  <stEvt:changed>/</stEvt:changed>
               </rdf:li>
               <rdf:li rdf:parseType="Resource">
                  <stEvt:action>saved</stEvt:action>
                  <stEvt:instanceID>xmp.iid:9a3c44d6-5015-0445-a372-5997c8a39b84</stEvt:instanceID>
                  <stEvt:when>2016-12-04T14:37:32+02:00</stEvt:when>
                  <stEvt:softwareAgent>Adobe Illustrator CC (Windows)</stEvt:softwareAgent>
                  <stEvt:changed>/</stEvt:changed>
               </rdf:li>
            </rdf:Seq>
         </xmpMM:History>
         <xmpMM:Manifest>
            <rdf:Seq>
               <rdf:li rdf:parseType="Resource">
                  <stMfs:linkForm>EmbedByReference</stMfs:linkForm>
                  <stMfs:reference rdf:parseType="Resource">
                     <stRef:filePath>C:\Users\romeg\Google Диск\WORK\Triomics\D0973478.jpg</stRef:filePath>
                  </stMfs:reference>
               </rdf:li>
            </rdf:Seq>
         </xmpMM:Manifest>
         <illustrator:StartupProfile>Web</illustrator:StartupProfile>
         <xmpTPg:NPages>1</xmpTPg:NPages>
         <xmpTPg:HasVisibleTransparency>False</xmpTPg:HasVisibleTransparency>
         <xmpTPg:HasVisibleOverprint>False</xmpTPg:HasVisibleOverprint>
         <xmpTPg:MaxPageSize rdf:parseType="Resource">
            <stDim:w>3263.572006</stDim:w>
            <stDim:h>665.000000</stDim:h>
            <stDim:unit>Pixels</stDim:unit>
         </xmpTPg:MaxPageSize>
         <xmpTPg:PlateNames>
            <rdf:Seq>
               <rdf:li>Cyan</rdf:li>
               <rdf:li>Magenta</rdf:li>
               <rdf:li>Yellow</rdf:li>
               <rdf:li>Black</rdf:li>
            </rdf:Seq>
         </xmpTPg:PlateNames>
         <xmpTPg:SwatchGroups>
            <rdf:Seq>
               <rdf:li rdf:parseType="Resource">
                  <xmpG:groupName>Группа образцов по умолчанию</xmpG:groupName>
                  <xmpG:groupType>0</xmpG:groupType>
               </rdf:li>
            </rdf:Seq>
         </xmpTPg:SwatchGroups>
         <pdf:Producer>Adobe PDF library 10.01</pdf:Producer>
      </rdf:Description>
   </rdf:RDF>
</x:xmpmeta>
                                                                                                    
                                                                                                    
                                                                                                    
                                                                                                    
                                                                                                    
                                                                                                    
                                                                                                    
                                                                                                    
                                                                                                    
                                                                                                    
                                                                                                    
                                                                                                    
                                                                                                    
                                                                                                    
                                                                                                    
                                                                                                    
                                                                                                    
                                                                                                    
                                                                                                    
                                                                                                    
                           
<?xpacket end="w"?>
	</metadata>
<image display="none" overflow="visible" enable-background="new    " width="213" height="211" xlink:href="D0973478.jpg"  transform="matrix(3.9948 0 0 3.9948 -115.4421 -106.8363)">
</image>
<g>
	<g>
		<polygon fill="#FFB621" points="200,200 200,260 303,260 303,525 363,525 363,260 465,260 465,200 		"/>
	</g>
</g>
<g>
	<g>
		<polyline fill="#FFB621" points="605,60 605,180 605,200 665,200 665,180 665,60 665,0 605,0 485,0 465,0 465,60 		"/>
	</g>
</g>
<g>
	<g>
		<polyline fill="#FFB621" points="60,604 60,484.499 60,465 0,465 0,484.499 0,604.5 0,665 60.498,665 180.498,665 200,665 
			200,604 		"/>
	</g>
</g>
<g>
	<path fill="#FFFFFF" d="M936.526,247.94V428.42h-49.92V247.94h-63.36v-43.2h176.64v43.2H936.526z"/>
	<path fill="#FFFFFF" d="M1217.802,278.98c0,35.84-14.19,58.99-42.56,69.439l56.64,80h-61.44l-49.6-71.359h-34.56v71.359h-49.92
		V204.74h84.8c34.77,0,59.57,5.87,74.4,17.6C1210.387,234.075,1217.802,252.956,1217.802,278.98z M1157.641,305.541
		c6.185-5.545,9.28-14.345,9.28-26.4c0-12.05-3.2-20.32-9.6-24.8s-17.6-6.72-33.6-6.72h-37.44v66.24h36.48
		C1139.827,313.86,1151.452,311.09,1157.641,305.541z"/>
	<path fill="#FFFFFF" d="M1268.998,204.74h49.92v223.68h-49.92V204.74z"/>
	<path fill="#FFFFFF" d="M1562.114,397.541c-22.614,22.08-50.455,33.119-83.52,33.119c-33.07,0-60.91-11.039-83.52-33.119
		c-22.615-22.08-33.92-49.545-33.92-82.4c0-32.85,11.305-60.32,33.92-82.4c22.61-22.08,50.45-33.12,83.52-33.12
		c33.064,0,60.905,11.04,83.52,33.12c22.61,22.08,33.92,49.55,33.92,82.4C1596.034,347.996,1584.724,375.461,1562.114,397.541z
		 M1545.154,315.3c0-19.945-6.399-36.96-19.2-51.04c-12.8-14.08-28.534-21.12-47.199-21.12c-18.67,0-34.4,7.04-47.2,21.12
		s-19.2,31.095-19.2,51.04c0,19.95,6.4,36.911,19.2,50.879c12.8,13.976,28.53,20.961,47.2,20.961
		c18.665,0,34.399-6.985,47.199-20.961C1538.755,352.211,1545.154,335.25,1545.154,315.3z"/>
	<path fill="#FFFFFF" d="M1838.591,287.621l-60.479,122.241h-29.761l-60.159-122.241V428.42h-49.921V204.74h67.521l57.6,122.88
		l57.92-122.88h67.2v223.68h-49.92V287.621z"/>
	<path fill="#FFFFFF" d="M1943.549,204.74h49.921v223.68h-49.921V204.74z"/>
	<path fill="#FFFFFF" d="M2151.226,384.26c24.529,0,44.585-9.705,60.16-29.119l32,32.96c-25.391,28.589-55.311,42.88-89.761,42.88
		c-34.455,0-62.83-10.881-85.12-32.641c-22.295-21.76-33.44-49.225-33.44-82.399c0-33.17,11.36-60.85,34.08-83.04
		c22.72-22.185,50.505-33.28,83.359-33.28c36.69,0,67.41,13.975,92.16,41.92l-31.04,35.2c-15.79-19.625-35.415-29.44-58.88-29.44
		c-18.774,0-34.83,6.135-48.16,18.4c-13.335,12.27-20,28.8-20,49.6c0,20.8,6.29,37.495,18.881,50.081
		C2118.051,377.971,2133.306,384.26,2151.226,384.26z"/>
	<path fill="#FFFFFF" d="M2335.063,249.38c-4.8,3.95-7.2,9.175-7.2,15.68c0,6.51,2.931,11.68,8.801,15.52
		c5.864,3.84,19.409,8.375,40.64,13.6c21.225,5.23,37.705,13.07,49.439,23.52c11.73,10.455,17.601,25.71,17.601,45.761
		c0,20.055-7.521,36.32-22.561,48.799c-15.04,12.48-34.829,18.721-59.359,18.721c-35.415,0-67.311-13.119-95.681-39.359
		l29.761-36.48c24.104,21.119,46.399,31.68,66.88,31.68c9.17,0,16.37-1.97,21.6-5.92c5.226-3.945,7.84-9.279,7.84-16
		s-2.774-12.05-8.319-16c-5.55-3.945-16.535-7.945-32.96-12c-26.03-6.185-45.07-14.24-57.12-24.16
		c-12.056-9.92-18.08-25.49-18.08-46.72c0-21.225,7.625-37.6,22.88-49.12c15.25-11.52,34.29-17.28,57.12-17.28
		c14.93,0,29.865,2.56,44.8,7.68c14.93,5.12,27.945,12.375,39.04,21.76l-25.28,36.48c-19.415-14.72-39.47-22.08-60.16-22.08
		C2346.424,243.46,2339.863,245.436,2335.063,249.38z"/>
</g>
</svg>
