<svg xmlns="http://www.w3.org/2000/svg" xmlns:xlink="http://www.w3.org/1999/xlink" preserveAspectRatio="xMidYMid" width="2272.316" height="1962.562" viewBox="0 0 2272.316 1962.562">
  <defs>
    <style>
      .cls-1, .cls-2 {
        stroke: #fff;
        fill: none;
        fill-rule: evenodd;
      }

      .cls-1 {
        stroke-width: 42px;
      }

      .cls-2 {
        stroke-width: 13px;
      }
    </style>
  </defs>
  <g>
    <path d="M1132.723,27.499 L1133.589,27.001 L2231.589,1937.001 L2230.722,1937.499 L1132.723,27.499 Z" class="cls-1"/>
    <path d="M1123.724,24.501 L1124.588,23.999 L2234.588,1933.999 L2233.724,1934.501 L1123.724,24.501 Z" class="cls-1"/>
    <path d="M2237.257,1939.760 L2237.055,1940.740 L1217.055,1730.740 L1217.257,1729.760 L2237.257,1939.760 Z" class="cls-1"/>
    <path d="M2240.468,1938.783 L2239.843,1941.717 L1225.843,1725.717 L1226.469,1722.783 L2240.468,1938.783 Z" class="cls-1"/>
    <path d="M2244.452,1942.494 L2241.860,1944.006 L1125.860,31.006 L1128.452,29.494 L2244.452,1942.494 Z" class="cls-1"/>
    <path d="M2251.314,1938.988 L2246.998,1941.512 L1127.998,28.512 L1132.314,25.988 L2251.314,1938.988 Z" class="cls-1"/>
    <path d="M1678.517,1591.428 L1673.795,1593.072 L1127.795,25.072 L1132.517,23.428 L1678.517,1591.428 Z" class="cls-1"/>
    <path d="M1226.908,1732.634 L1225.404,1727.866 L1672.404,1586.866 L1673.908,1591.634 L1226.908,1732.634 Z" class="cls-1"/>
    <path d="M1228.641,1729.696 L1229.671,1724.804 L2240.671,1937.804 L2239.641,1942.696 L1228.641,1729.696 Z" class="cls-1"/>
    <path d="M1119.296,634.920 L1123.016,631.580 L1483.016,1032.580 L1479.296,1035.920 L1119.296,634.920 Z" class="cls-1"/>
    <path d="M1125.249,634.633 L1129.063,637.867 L31.063,1932.867 L27.249,1929.633 L1125.249,634.633 Z" class="cls-1"/>
    <path d="M25.319,1932.503 L20.993,1929.997 L1118.993,34.997 L1123.319,37.503 L25.319,1932.503 Z" class="cls-1"/>
    <path d="M2216.758,1925.261 L2216.554,1926.239 L1211.554,1716.239 L1211.758,1715.261 L2216.758,1925.261 Z" class="cls-2"/>
    <path d="M1214.797,1716.230 L1214.515,1715.270 L1664.515,1583.270 L1664.797,1584.230 L1214.797,1716.230 Z" class="cls-2"/>
    <path d="M1668.128,1583.585 L1667.184,1583.915 L1118.184,15.915 L1119.128,15.585 L1668.128,1583.585 Z" class="cls-2"/>
    <path d="M1112.280,613.080 L1113.032,612.420 L1473.032,1022.420 L1472.280,1023.080 L1112.280,613.080 Z" class="cls-2"/>
    <path d="M1112.223,6.501 L1113.089,6.999 L12.089,1919.999 L11.223,1919.501 L1112.223,6.501 Z" class="cls-2"/>
    <path d="M12.037,1920.073 L11.275,1919.427 L1112.275,621.426 L1113.037,622.073 L12.037,1920.073 Z" class="cls-2"/>
  </g>
</svg>
