<?xml version="1.0" encoding="utf-8"?>
<!-- Generator: Adobe Illustrator 17.0.1, SVG Export Plug-In . SVG Version: 6.00 Build 0)  -->
<!DOCTYPE svg PUBLIC "-//W3C//DTD SVG 1.1//EN" "http://www.w3.org/Graphics/SVG/1.1/DTD/svg11.dtd">
<svg version="1.1" xmlns="http://www.w3.org/2000/svg" xmlns:xlink="http://www.w3.org/1999/xlink" x="0px" y="0px" width="602px"
	 height="531px" viewBox="0 0 602 531" enable-background="new 0 0 602 531" xml:space="preserve">
<g id="Слой_3">
	<linearGradient id="SVGID_1_" gradientUnits="userSpaceOnUse" x1="36.9124" y1="394.7419" x2="565.7589" y2="394.7419">
		<stop  offset="0" style="stop-color:#2B2B43"/>
		<stop  offset="0.4086" style="stop-color:#2A2A41"/>
		<stop  offset="0.6037" style="stop-color:#252539"/>
		<stop  offset="0.7534" style="stop-color:#1C1C2C"/>
		<stop  offset="0.8793" style="stop-color:#11111A"/>
		<stop  offset="0.9903" style="stop-color:#020202"/>
		<stop  offset="1" style="stop-color:#000000"/>
	</linearGradient>
	<polygon fill="url(#SVGID_1_)" points="326.215,445.038 565.759,494.302 36.912,493.693 200.667,295.182 165.683,412.514 	"/>
	<g>
		<g opacity="0.9">
			<image overflow="visible" width="237" height="271" xlink:href="5BF4D91D.png"  transform="matrix(1 0 0 1 0 259)">
			</image>
		</g>
		<linearGradient id="SVGID_2_" gradientUnits="userSpaceOnUse" x1="36.9124" y1="264.8463" x2="382.7812" y2="264.8463">
			<stop  offset="0" style="stop-color:#C7C7C7"/>
			<stop  offset="0.205" style="stop-color:#C2C2C2"/>
			<stop  offset="0.4309" style="stop-color:#B5B5B5"/>
			<stop  offset="0.6667" style="stop-color:#9F9F9F"/>
			<stop  offset="0.9078" style="stop-color:#818181"/>
			<stop  offset="1" style="stop-color:#737373"/>
		</linearGradient>
		<polyline fill="url(#SVGID_2_)" points="36.912,493.693 301.336,36 382.781,269.18 301.433,181.035 200.667,295.182 		"/>
		<g opacity="0.7">
			<image overflow="visible" width="154" height="306" xlink:href="5BF4D923.png"  transform="matrix(1 0 0 1 265 0)">
			</image>
		</g>
		<linearGradient id="SVGID_3_" gradientUnits="userSpaceOnUse" x1="289.9008" y1="408.7238" x2="481.9801" y2="216.6445">
			<stop  offset="0" style="stop-color:#FFBA38"/>
			<stop  offset="0.4415" style="stop-color:#FEB837;stop-opacity:0.8411"/>
			<stop  offset="0.6144" style="stop-color:#FCB132;stop-opacity:0.7788"/>
			<stop  offset="0.7403" style="stop-color:#F9A52A;stop-opacity:0.7335"/>
			<stop  offset="0.8433" style="stop-color:#F4941E;stop-opacity:0.6964"/>
			<stop  offset="0.9313" style="stop-color:#EE7D10;stop-opacity:0.6647"/>
			<stop  offset="1" style="stop-color:#E76600;stop-opacity:0.64"/>
		</linearGradient>
		<path fill="url(#SVGID_3_)" d="M301.336,36l264.276,458.302l-239.396-49.263l106.761-31.244L382.781,269.18L301.336,36z"/>
	</g>
	<line fill="#FCFCFC" x1="301.336" y1="36" x2="382.781" y2="269.18"/>
</g>
<g id="Слой_2">
</g>
<g id="Слой_4">
	<g opacity="0.1">
		<polygon fill="#FFFFFF" points="200.667,295.182 165.683,412.514 36.912,493.693 		"/>
	</g>
	<polygon opacity="0.1" fill="#0D0009" points="301.336,36 301.433,181.035 382.781,269.18 	"/>
	<polygon opacity="0.15" fill="#FFFFFF" points="565.612,494.302 432.976,413.795 326.215,445.038 	"/>
	<polygon opacity="0" points="301.336,36 301.433,181.035 200.667,295.182 36.912,493.693 	"/>
	<g opacity="0.9">
		<image overflow="visible" width="312" height="123" xlink:href="5BF4D924.png"  transform="matrix(1 0 0 1 290 408)">
		</image>
	</g>
</g>
</svg>
